<svg width="45" height="48" xmlns="http://www.w3.org/2000/svg">
 <defs>
  <style type="text/css">
   <![CDATA[
    .fil1 {fill:#FEFEFE}
    .fil0 {fill:#201E1E}
   ]]>
  </style>
 </defs>
 <g>
  <title>background</title>
  <rect fill="none" id="canvas_background" height="50" width="47" y="-1" x="-1"/>
 </g>
 <g>
  <title>Layer 1</title>
  <g stroke="null" id="Layer_x0020_1">
   <g stroke="null" id="_469893736">
    <ellipse stroke="null" id="svg_1" ry="6.984479" rx="22.000004" cy="40.015522" cx="22.000004" class="fil0"/>
    <path stroke="null" id="svg_2" d="m14.102566,18.662971c-0.752137,-2.494457 -1.222222,-5.088692 -0.940171,-7.682927c0.65812,-5.687362 5.264958,-8.980044 10.435899,-8.780488c4.88889,0.299335 7.80342,5.388027 7.709403,10.277162c-0.094017,2.095344 -0.564103,4.090909 -1.410257,5.986696c1.504274,0 2.91453,0.099778 4.23077,0.898004c1.410257,0.898004 2.162394,2.2949 2.538462,3.991131c0.940171,4.390244 2.256411,8.780488 2.444445,13.370288c0.282051,0.798226 0.188034,1.596452 -0.188034,2.394679c-0.470086,1.097561 -1.598291,1.596452 -2.726496,1.496674c-5.170941,-0.199557 -10.341882,-0.698448 -15.60684,-0.498891c-4.700855,0.199557 -9.213677,0.698448 -13.820515,-0.59867c-0.940171,-0.299335 -1.504274,-0.997783 -1.786325,-1.796009c-0.188034,-0.399113 -0.282051,-0.798226 -0.282051,-1.297118c0,-0.399113 0,-0.798226 0,-1.197339c0,-0.498891 0.094017,-0.997783 0.188034,-1.396896c0.282051,-1.596452 0.752137,-2.993348 1.128205,-4.589801c0.65812,-2.2949 1.31624,-4.689579 2.162394,-6.984479c0.470086,-1.297118 1.31624,-2.394679 2.632479,-2.993348c1.034188,-0.498891 2.162394,-0.698448 3.290599,-0.59867z" class="fil0"/>
    <g stroke="null" id="svg_3">
     <path stroke="null" id="svg_4" d="m23.504277,4.394679c-4.136753,-0.199557 -7.709403,2.2949 -8.273506,6.784923c-0.282051,2.793792 0.376068,5.487805 1.31624,8.08204c0.752137,2.095344 2.068376,4.988914 3.666667,6.585366c0,0.099778 0.094017,0.099778 0.188034,0.199557c0.094017,0.099778 0.188034,0.099778 0.282051,0.199557c0.188034,0.099778 0.376068,0.199557 0.65812,0.199557c0.094017,0 0.376068,-0.099778 0.376068,-0.199557c0,-0.099778 0,-0.099778 0.094017,-0.099778c0,-0.099778 0.094017,-0.099778 0.188034,-0.199557c3.478633,-3.691796 6.957266,-8.181818 7.1453,-13.569845c0.188034,-3.691796 -1.880342,-7.782705 -5.641027,-7.982262zm0.752137,7.682927c-0.376068,1.796009 -1.974359,2.594235 -3.478633,1.696231c-2.068376,-1.197339 -0.752137,-5.388027 1.504274,-5.587583c0,0.099778 0.094017,0.099778 0.188034,0.199557c1.504274,0.698448 2.162394,1.895787 1.786325,3.691796z" class="fil1"/>
     <path stroke="null" id="svg_5" d="m37.042741,37.121952c-0.094017,-4.490022 -1.504274,-8.880266 -2.444445,-13.370288c-0.752137,-3.592018 -3.666667,-3.093126 -6.487181,-3.093126c-0.470086,0 -0.65812,0.399113 -0.564103,0.698448c-0.940171,1.297118 -1.974359,2.494457 -3.008547,3.691796c-0.282051,0.199557 -0.470086,0.498891 -0.752137,0.698448c-0.564103,0.59867 -1.128205,1.097561 -1.692308,1.496674c-1.31624,0.898004 -1.974359,0.59867 -2.820513,-0.59867c-0.376068,-0.59867 -1.598291,-3.592018 -2.726496,-4.689579c-0.094017,-0.199557 -0.188034,-0.498891 -0.282051,-0.698448c-0.094017,-0.199557 -0.282051,-0.299335 -0.470086,-0.199557c-0.094017,0 -0.094017,0 -0.188034,0c-2.256411,-0.299335 -4.512821,-0.498891 -5.452992,2.095344c-0.846154,2.195122 -1.410257,4.490022 -2.068376,6.784923c-0.376068,1.396896 -0.846154,2.993348 -1.128205,4.490022c-0.094017,0.299335 -0.188034,0.498891 -0.094017,0.798226c-0.094017,0.399113 -0.094017,0.798226 -0.094017,1.197339c0,0.199557 0.094017,0.299335 0.188034,0.399113c0,0.199557 0.094017,0.399113 0.282051,0.498891c4.418804,1.197339 8.837608,0.698448 13.256412,0.59867c5.358975,-0.199557 10.623933,0.299335 15.982909,0.399113c0,0 0,0 0,0c0.188034,0.099778 0.470086,0 0.564103,-0.199557c0.188034,-0.299335 0.188034,-0.698448 0,-0.997783z" class="fil1"/>
    </g>
   </g>
  </g>
 </g>
</svg>