<svg xmlns="http://www.w3.org/2000/svg" xmlns:se="http://svg-edit.googlecode.com" xmlns:xlink="http://www.w3.org/1999/xlink" xmlns:dc="http://purl.org/dc/elements/1.1/" xmlns:cc="http://creativecommons.org/ns#" xmlns:rdf="http://www.w3.org/1999/02/22-rdf-syntax-ns#" xmlns:inkscape="http://www.inkscape.org/namespaces/inkscape" width="24.496402740478516" height="39.5467643737793" style=""  viewBox="0 0 24.484375 39.53125"><rect id="svgEditorBackground" x="0" y="0" width="24.484375" height="39.53125" style="fill: none; stroke: none;"/>                                    <title>my vector image</title>                                    <!-- Created with Vector Paint - http://www.vectorpaint.yaks.com/ https://chrome.google.com/webstore/detail/hnbpdiengicdefcjecjbnjnoifekhgdo -->                                                                    <g class="currentLayer" style=""><title>Layer 1</title><path fill="#4a90d6" stroke="#222222" stroke-width="2" stroke-linejoin="round" stroke-dashoffset="" fill-rule="nonzero" marker-start="" marker-mid="" marker-end="" id="svg_1" d="M9.469278269978247,13.762620085880107 C6.35350414446757,13.284967325957988 3.6876067649344364,11.993802172887296 2.3204030189277143,10.30023097910981 C1.478734462596799,9.257642576991394 1.289048538371795,8.736618731689852 1.2867796285254953,7.461109121543098 C1.284453785062282,6.151755486916594 1.4772562973508887,5.635527790392798 2.3724677522970827,4.5542578148309545 C3.749185737378664,2.891409322446745 6.081251831691605,1.7303473891066545 9.1252073693003,1.192286740141478 C10.781967028667944,0.8994318633778486 13.225504916945878,0.8796651565647111 14.905638986803698,1.1455271122951176 C17.159115610756608,1.502113183913048 19.241544687957763,2.3041087981498514 20.657645971613157,3.3607669906285027 C23.070800289237756,5.161404082659705 23.718647854231538,7.493017373706846 22.414857608147837,9.685033002451425 C21.913930390549535,10.527225687836697 21.279725805786203,11.14195069873799 20.20437007816995,11.827624336855777 C18.61881749753924,12.838609342722405 16.94413218516492,13.436727860980657 14.780401910770694,13.764808022963585 C13.319133295348196,13.986376798270037 10.922432791441235,13.985388212019082 9.469278269978247,13.762621340430801 L9.469278269978247,13.762620085880107 zM19.378592325395218,23.387377896725702 C19.378592325395218,21.923716988384864 19.34581121709763,20.726177727848356 19.305746823834358,20.726177727848356 C19.189207938446085,20.726177727848356 14.423934243360087,23.110815874835 14.423934243360087,23.16913117267769 C14.423934243360087,23.2442311094174 19.147397581101064,26.048580574705383 19.273891413888148,26.048580574705383 C19.331478707571524,26.048580574705383 19.37859021674186,24.851038805066406 19.37859021674186,23.387377896725702 L19.378592325395218,23.387377896725702 zM17.664601734580668,34.62583590685268 C18.32649924969479,34.17376846165288 18.919055843334725,33.42406630007522 19.174993513447486,32.714884883823956 C19.33352831758577,32.275591277719045 19.361862278228433,31.80057432961607 19.301552714455102,30.59309400632277 L19.223836226139095,29.037313921293773 L12.11008268741312,24.847482152755553 C5.911488454180547,21.196656964695812 4.9844996094188225,20.680489486623777 4.904396126722456,20.835208253092752 C4.853830645122648,20.93286627279755 4.839915648746747,22.549145829099583 4.873466415124107,24.426939067088878 L4.9344781601033825,27.841110757656885 L10.952282873073719,31.405380703067593 C14.262071985933167,33.3657296748642 17.01170394738035,34.970596579992524 17.062579400866316,34.97174825788359 C17.1134548543521,34.9729011903254 17.38436606427989,34.81724151054811 17.664605951884177,34.62583590685268 L17.664601734580668,34.62583590685268 zM13.210662113568697,36.15973160284561 C13.32718623839044,36.133126338096204 11.834321577247103,35.189564670911075 9.197106085986452,33.62297161012567 C5.875158484099396,31.649622980039773 4.978298063072302,31.158166394587084 4.903624359989022,31.270247988057438 C4.730516659966032,31.53005798937979 4.78722675430187,32.44664429924593 5.007914084299289,32.95588665535776 C5.648512102767601,34.43410035622373 7.711136717788928,35.678784391788945 10.172887035783004,36.072665757906684 C10.896696690400809,36.1884808953901 12.840701180235726,36.24419425429317 13.210664222222244,36.15973160284561 L13.210662113568697,36.15973160284561 zM10.111885834063788,38.28801980038896 C6.063450589169183,37.8315840083295 2.8947640520750464,36.10844053649843 1.6029382990110332,33.66082517985677 L1.280331369860484,33.04958782095657 L1.280331369860484,26.580820106659967 C1.280331369860484,20.546620104551177 1.297246978425213,20.079050171657784 1.532125538247618,19.620752625795202 C2.7455747948301843,17.253074754856957 5.469677303162187,15.623195864850425 9.290475100156296,14.978798211809353 C10.827469636151003,14.719576594943698 13.487258250038417,14.721077038035185 15.035481359409303,14.982042480901878 C18.758117175606014,15.609517494426305 21.623611145062434,17.312836550095007 22.709217031396687,19.54350866126131 L23.025770019861852,20.193939450444518 L23.025770019861852,26.58082512486479 L23.025770019861852,32.96770829018169 L22.709217031396687,33.6181390793659 C22.081570355215966,34.90781382575492 20.74872709806358,36.12366200474967 19.06547222283581,36.94204832884499 C18.035857380408046,37.442635537056546 16.066093594362506,38.031896924690884 14.836823119747423,38.20705483735124 C13.511353819605006,38.39591119325248 11.391131367643457,38.432251774380944 10.111885834063788,38.28802230949135 L10.111885834063788,38.28801980038896 z" style="color: rgb(0, 0, 0);" class=""/></g></svg>