<svg width="45" height="48" xmlns="http://www.w3.org/2000/svg">

 <g>
  <title>background</title>
  <rect fill="none" id="canvas_background" height="50" width="47" y="-1" x="-1"/>
 </g>
 <g>
  <title>Layer 1</title>
  <g stroke="null" id="svg_1">
   <g stroke="null" id="svg_2">
    <path stroke="null" id="svg_3" fill="#E53935" d="m22.5,0c-11.874352,0 -21.5,7.387125 -21.5,16.5s21.5,31.500001 21.5,31.500001s21.5,-22.387125 21.5,-31.500001s-9.625648,-16.5 -21.5,-16.5zm-17.590909,16.5c0,-7.4445 7.8905,-13.5 17.590909,-13.5s17.590909,6.0555 17.590909,13.5c0,5.1855 -9.776636,17.704125 -17.590909,26.33925c-7.814273,-8.635125 -17.590909,-21.15375 -17.590909,-26.33925zm17.590909,-7.5c-5.397966,0 -9.772727,3.357375 -9.772727,7.5s4.374761,7.5 9.772727,7.5s9.772727,-3.357375 9.772727,-7.5s-4.374761,-7.5 -9.772727,-7.5zm0,12c-3.233307,0 -5.863636,-2.018625 -5.863636,-4.5s2.63033,-4.5 5.863636,-4.5s5.863636,2.018625 5.863636,4.5s-2.63033,4.5 -5.863636,4.5z"/>
   </g>
  </g>
 </g>
</svg>