<svg width="45" height="48" xmlns="http://www.w3.org/2000/svg">
 <g>
  <title>background</title>
  <rect x="-1" y="-1" width="47" height="50" id="canvas_background" fill="none"/>
 </g>

 <g>
  <title>Layer 1</title>
  <g id="svg_1" stroke="null">
   <g id="svg_2" stroke="null">
    <path d="m22.5,0c-11.87435,0 -21.5,7.38713 -21.5,16.5s21.5,31.5 21.5,31.5s21.5,-22.38712 21.5,-31.5s-9.62565,-16.5 -21.5,-16.5zm-17.59091,16.5c0,-7.4445 7.8905,-13.5 17.59091,-13.5s17.59091,6.0555 17.59091,13.5c0,5.1855 -9.77664,17.70413 -17.59091,26.33925c-7.81427,-8.63513 -17.59091,-21.15375 -17.59091,-26.33925zm17.59091,-7.5c-5.39797,0 -9.77273,3.35738 -9.77273,7.5s4.37476,7.5 9.77273,7.5s9.77273,-3.35738 9.77273,-7.5s-4.37476,-7.5 -9.77273,-7.5zm0,12c-3.23331,0 -5.86364,-2.01863 -5.86364,-4.5s2.63033,-4.5 5.86364,-4.5s5.86364,2.01863 5.86364,4.5s-2.63033,4.5 -5.86364,4.5z" fill="#33666C" id="svg_3" stroke="null"/>
   </g>
  </g>
 </g>
</svg>